<svg id="mogwai" xmlns="http://www.w3.org/2000/svg" viewBox="0 0 272.31 160.91"><defs><style>.cls-1,.cls-2,.cls-3{fill:#fff;}.cls-1,.cls-2,.cls-5{stroke:#231f20;}.cls-1,.cls-5{stroke-miterlimit:10;}.cls-4{fill:#1e1d1c;}.cls-5{fill:none;}</style></defs><g id="ear-right"><path class="cls-1" d="M382.17,378.51s-9.28-8.15,0-10.4,21.94-1.59,34.31,27.89c0,0-3.4,7-6.75,4.07C397.26,389.21,394.83,372.89,382.17,378.51Z" transform="translate(-168.2 -315.09)"/><path class="cls-1" d="M386.11,407.46s29-.82,20.86-11.92c-9.33-12.77-16.92-21.14-28.46-18.19S386.11,407.46,386.11,407.46Z" transform="translate(-168.2 -315.09)"/><path class="cls-1" d="M382.45,361.08s-10.4,4.78,2.53,7,19.13,12.09,25.6,23.62,14.75,7.74,14.75,7.74S407.2,353.48,382.45,361.08Z" transform="translate(-168.2 -315.09)"/><path class="cls-1" d="M373.07,346.73s-3.27,12.66,7.41,14.63,18.65,2.09,33.19,23.06c13.22,19.07,15.19,18.42,22.78,21.79C452.68,413.43,410.19,323.11,373.07,346.73Z" transform="translate(-168.2 -315.09)"/></g><g id="ear-left"><path class="cls-1" d="M187.83,424.24s3.93,12.66,19.68,4.28c0,0-3.65-13.58,13.22-26.59s3.1-12.84,3.1-12.84S189,406.12,187.83,424.24Z" transform="translate(-168.2 -315.09)"/><path class="cls-1" d="M217.76,381.89,202,384.05l-21.09,26.81L172.77,427s-3.1,7.5,3.93,6.41c13.38-2.07,19.41-13.29,27.28-27.15S241.11,394,241.11,394,251.51,371.76,217.76,381.89Z" transform="translate(-168.2 -315.09)"/><path class="cls-1" d="M222.14,400.76s-19.88,11.73-17.63,29.17c0,0,9.23,6.92,15.1-3,0,0-.85-13.53,13.5-19.49C250.37,400.29,222.14,400.76,222.14,400.76Z" transform="translate(-168.2 -315.09)"/><path class="cls-1" d="M226.08,365.93s15.18,10.83,1.12,15.4c-1.34.43-1.4,0-1.4,0S201.42,382.44,185,421c-16.31,38.28-16.31,8.75-16.31,8.75s7-46.4,38.25-61C207,368.67,218.76,362,226.08,365.93Z" transform="translate(-168.2 -315.09)"/></g><path id="face-fuzz" class="cls-2" d="M251.86,334.36l2.06,3.37-6.47-1.68,2,4.78-5.62-1.13a3.93,3.93,0,0,0,1.4,4.22H241v2s-5.06,0-2.81,2.25c0,0,.54.84-.58,2.81s-3.36.85-7.29,1.69l2,2.25s-4.78-.28-5.62,2a3,3,0,0,1,2.25,2.81h-4.78l4.5,5.34s-5.91-1.68-4.5,1.41l1.4,2s-1.68.28-3.37-1.69c0,0-1.69,9.56,3.66,10.13,0,0-6.47,1.4-8.16,2.25s1.41,6.75,5.91,5.9c0,0,.19,3.54-6.38.09,0,0-.66,6.38,3.28,5.82,0,0-4.5.28-4.78-1.69s1.41,8.44,5.06,9.56a7.11,7.11,0,0,0-9.84,2.25s6.47-.84,7.87,1.13c0,0-6.87,3.83-6.59,5.78l4.73,1.39h-5s7.51,3.89,5.84,6.12h-3.34s9.46,10.56,1.39,11.4c0,0,3.34,5-3.05,3.61a15.76,15.76,0,0,0,5.28,5.84l-3.62,2.78,5.84,1.11-.83,2.51h7.23s-1.39,8.89,1.39,11.39l1.39-5s-.56,8.06.83,8.62c0,0,5.28-4.45,6.4-6.95l.27,3.89,2.23-.56,2,3.62,3.33-1.39-6.67,3.06a6.31,6.31,0,0,0,6.39,1.94c3.9-1.11,2.51,3.06,2.51,3.06l2.78,2.23h4.49l2.18-1.67v3.61h2.22v3.34h3.06v-3.34s3.06,3.06,5.56,3.34v-2.5s2.23,4.45,6.95,4.72c0,0-1.94-3.61-1.66-4.17s1.66,4.45,6.95,4.17,2.78-3,2.78-3,1.39,3.89,5,4.44c0,0,4.17.56,2.5-5.28l2,3.06s1.39-.56,1.67-3.89a3.94,3.94,0,0,0,2.22,3.33l2.23-3.33a8,8,0,0,0,5.56,3.06s-1.67-4.18,0-4.18a16.1,16.1,0,0,1,4.45,1.12v-2.23s-1.12,2.51,5.83,2.23c0,0,.56,4.72,4.18,0,0,0,3.05,4.17,4.44-.84,0,0,1.95,3.06,5.84-3.33,0,0,2.51,3.61,5-.28,0,0,7.5,2.22,2.5-1.11l3.61.55v-2.5l3.62,2.22,4.73-3.89v3.06l3.89-3.34s3.61.56,5.28-3.61v3.34s4.17.83,6.4-5.29l1.66,1.67s-1.94-6.67,1.67-10.29l2.5,3.62v-2.23l2.51,2.23v-3.06l4.45-.56-2-2.22,5.56-3.89-4.73-.28,6.12-3.34s-.83-4.72,3.89-5.84c0,0-5.28-4.17-2.78-7l2.78.56s-2.22-2.78,0-5l1.67,1.39s4.17-7.5,0-9.17l3.34,3.34a26.62,26.62,0,0,0,0-5c-.28-2.22,2.22,5,2.22,5s2.23-7.66,0-9.39l2.78,3.27s-.28-8.9-3.89-10.29c0,0,6.12.28,3.89-3.34l-4.72-3.05h5.21s-2.71-4.73-6.88-4.73h4.17s.28-3.61-2.78-5,3.06-2.23,3.06-2.23-.56-2.78-4.73-3.06l2.5-2.5s-5.84-1.67-6.95-4.17h3.89s-1.39-5-5.84-5.84c0,0,8.35-5-4.72-1.67l5-3.06s-3.33-5.56.28-8.62l-5,1.4,3.05-5.57a4.1,4.1,0,0,0-5,2.51l.56-7s-4.45,4.17-7.79,3.05c0,0-3.34-2.78.28-3.61l-3.62-1.39s0-3.89-5-3.61l3.61-2.11h-5.28s-.28-6.24,2.5-5.4c0,0-3.61-2.1-10-.08l3.62-3h-3.89l1.66-1.95h-3.33l-.28-2.22h-3.62l-.83-3.34-4.17,3.06.56-3.06h-3.34s0-4.45-5.28,0c0,0-5-1.11-4.73,3.62s-1.39-.28-1.39-.28-.28-2.23-2.5,0c0,0-1.95-2.5-5,.83l.56-4.17L313.93,322s-.56-10.85-3.06-2.51c0,0-5-8.34-4.87.56,0,0-6.25-6-12.37-4.1,0,0,3.34,1.6,3.06,3.54a4.48,4.48,0,0,0-5.56,2.23L290,317.84a10.52,10.52,0,0,0-4.73,5.28V319s-4.72,1.94-5.56,5.28l-1.11-2.78-1.11,6.12s-5.28-3.34-4.17,5.56L270,334.52l-.56-4.45s-3.89-.83-3.89,2.78-4.17-1.67-4.17-1.67l.28,4.73S260.69,333.09,251.86,334.36Z" transform="translate(-168.2 -315.09)"/><path class="cls-3" d="M254,426.94s23.73-32.88,41.73-4.61C295.73,422.33,284.64,450.14,254,426.94Z" transform="translate(-168.2 -315.09)"/><circle class="cls-2" cx="107.57" cy="107.43" r="13.57"/><path class="cls-1" d="M272.89,421.27c5.29-5.29-1.39-5.84-3.05-3.62S267.61,426.55,272.89,421.27Z" transform="translate(-168.2 -315.09)"/><path class="cls-2" d="M250.26,425.72s-1.95-2,2-5,6.4-4.44,13.62-10.84c9.73-8.62,33.92-.84,31.14,11.4-1,4.48-5-5.29-12-7.51s-10-.63-12.78,2.33S257.21,430.72,250.26,425.72Z" transform="translate(-168.2 -315.09)"/><path class="cls-2" d="M297,427.11a14.94,14.94,0,0,1-6.63,10.19c-6.11,4.17-15.61,6.77-27.29,1.48s-11.4-7.23-11.4-9.17,3.61-4.45,8.62-2.5,19.54,14.69,30.31-.71C296.69,417.65,297,427.11,297,427.11Z" transform="translate(-168.2 -315.09)"/><path class="cls-3" d="M325.05,416.54s3.82-34.57,37.12-15.76c.64.36,1.29.75,2,1.15C364.13,401.93,355.87,432.35,325.05,416.54Z" transform="translate(-168.2 -315.09)"/><circle class="cls-1" cx="173.22" cy="92.37" r="13.48"/><path class="cls-1" d="M333.8,417.47s-14.29-3.5-9.23,2.12a51.06,51.06,0,0,0,15.13,5.05c8.3,1.27,27.28-1.41,27.28-17.58,0,0,.67-11.06-7.45-.7C354.06,413.34,349.26,419,333.8,417.47Z" transform="translate(-168.2 -315.09)"/><path class="cls-1" d="M338.65,404.92c3.9-3.36-.14-5.76-2.89-2.87S335,408,338.65,404.92Z" transform="translate(-168.2 -315.09)"/><path class="cls-1" d="M323.11,412.65s-3.06,4.45,1.94,3.89S332.84,406,332.84,406s3.89-14.45,17-7.5,16.4,2.22,16.4,2.22,5.54-3.53-2.22-6.12-19.64-10.15-31.79-1.34c0,0-5.43,4.27-7.39,15Z" transform="translate(-168.2 -315.09)"/><path class="cls-4" d="M302.41,440.2c1.07.28,21.17-15.29,27.68-10.13s-23.15,19.31-26.61,10.41" transform="translate(-168.2 -315.09)"/><path class="cls-1" d="M300.33,439.55s-2.25,9.56,16,8.71,21.37-17.43,14.62-20C331,428.3,323.39,447.42,300.33,439.55Z" transform="translate(-168.2 -315.09)"/><path class="cls-1" d="M304.87,426.33S295,433.64,300.61,439s9,1.13,11.81,0,5.82-4,11.07-4.69,6.84-2.81,7.21-7.34-9.84-6-12.94-6S319.31,432.8,304.87,426.33Z" transform="translate(-168.2 -315.09)"/><path class="cls-1" d="M309.33,428.3s-11.25-3.14-5.07-8.46,13-4.84,13,1.11S315,429.31,309.33,428.3Z" transform="translate(-168.2 -315.09)"/><path class="cls-5" d="M312.47,428.3s-2.52-7.84-6-4.54" transform="translate(-168.2 -315.09)"/><path class="cls-5" d="M315,427.53s-5.19-6.58-.77-6.58" transform="translate(-168.2 -315.09)"/></svg>